<?xml version="1.0" encoding="UTF-8" standalone="no"?>
<!DOCTYPE svg PUBLIC "-//W3C//DTD SVG 1.1//EN"
 "http://www.w3.org/Graphics/SVG/1.1/DTD/svg11.dtd">
<!-- Generated by graphviz version 2.47.0 (20210316.0004)
 -->
<!-- Title: dependencies Pages: 1 -->
<svg width="1051pt" height="360pt"
 viewBox="0.00 0.00 1051.00 360.00" xmlns="http://www.w3.org/2000/svg" xmlns:xlink="http://www.w3.org/1999/xlink">
<g id="graph0" class="graph" transform="scale(1 1) rotate(0) translate(4 356)">
<title>dependencies</title>
<polygon fill="white" stroke="transparent" points="-4,4 -4,-356 1047,-356 1047,4 -4,4"/>
<text text-anchor="start" x="500.51" y="-42.4" font-family="Times-12" font-weight="bold" font-size="14.00">Legend</text>
<polygon fill="#ffffb3" stroke="transparent" points="287.5,-10 287.5,-30 307.5,-30 307.5,-10 287.5,-10"/>
<text text-anchor="start" x="311.13" y="-15.4" font-family="Times-12" font-size="14.00"> &#160;Declarations</text>
<polygon fill="#8dd3c7" stroke="transparent" points="400.5,-10 400.5,-30 420.5,-30 420.5,-10 400.5,-10"/>
<text text-anchor="start" x="424.23" y="-15.4" font-family="Times-12" font-size="14.00"> &#160;Module</text>
<polygon fill="#80b1d3" stroke="transparent" points="486.5,-10 486.5,-30 506.5,-30 506.5,-10 486.5,-10"/>
<text text-anchor="start" x="510.28" y="-15.4" font-family="Times-12" font-size="14.00"> &#160;Bootstrap</text>
<polygon fill="#fdb462" stroke="transparent" points="583.5,-10 583.5,-30 603.5,-30 603.5,-10 583.5,-10"/>
<text text-anchor="start" x="607.17" y="-15.4" font-family="Times-12" font-size="14.00"> &#160;Providers</text>
<polygon fill="#fb8072" stroke="transparent" points="679.5,-10 679.5,-30 699.5,-30 699.5,-10 679.5,-10"/>
<text text-anchor="start" x="703.23" y="-15.4" font-family="Times-12" font-size="14.00"> &#160;Exports</text>
<g id="clust1" class="cluster">
<title>cluster_AppModule</title>
<polygon fill="none" stroke="black" stroke-dasharray="1,5" points="19,-146 19,-344 426,-344 426,-146 19,-146"/>
</g>
<g id="clust2" class="cluster">
<title>cluster_AppModule_declarations</title>
<polygon fill="none" stroke="black" points="296,-154 296,-206 418,-206 418,-154 296,-154"/>
</g>
<g id="clust4" class="cluster">
<title>cluster_AppModule_imports</title>
<polygon fill="none" stroke="black" points="27,-154 27,-206 288,-206 288,-154 27,-154"/>
</g>
<g id="clust6" class="cluster">
<title>cluster_AppModule_bootstrap</title>
<polygon fill="none" stroke="black" points="154,-284 154,-336 278,-336 278,-284 154,-284"/>
</g>
<g id="clust14" class="cluster">
<title>cluster_AuthModule</title>
<polygon fill="none" stroke="black" stroke-dasharray="1,5" points="434,-70 434,-206 1035,-206 1035,-70 434,-70"/>
</g>
<g id="clust15" class="cluster">
<title>cluster_AuthModule_declarations</title>
<polygon fill="none" stroke="black" points="598,-78 598,-130 1027,-130 1027,-78 598,-78"/>
</g>
<g id="clust19" class="cluster">
<title>cluster_AuthModule_imports</title>
<polygon fill="none" stroke="black" points="442,-78 442,-130 590,-130 590,-78 442,-78"/>
</g>
<g id="clust29" class="cluster">
<title>cluster_SharedModule</title>
<polygon fill="none" stroke="black" stroke-dasharray="1,5" points="8,-70 8,-138 160,-138 160,-70 8,-70"/>
</g>
<g id="clust30" class="cluster">
<title>cluster_SharedModule_declarations</title>
<polygon fill="none" stroke="black" points="16,-78 16,-130 152,-130 152,-78 16,-78"/>
</g>
<!-- AppComponent -->
<g id="node1" class="node">
<title>AppComponent</title>
<polygon fill="#ffffb3" stroke="black" points="409.94,-198 304.06,-198 304.06,-162 409.94,-162 409.94,-198"/>
<text text-anchor="middle" x="357" y="-175.8" font-family="Times,serif" font-size="14.00">AppComponent</text>
</g>
<!-- AppModule -->
<g id="node2" class="node">
<title>AppModule</title>
<polygon fill="#8dd3c7" stroke="black" points="257.66,-263 254.66,-267 233.66,-267 230.66,-263 174.34,-263 174.34,-227 257.66,-227 257.66,-263"/>
<text text-anchor="middle" x="216" y="-240.8" font-family="Times,serif" font-size="14.00">AppModule</text>
</g>
<!-- AppComponent&#45;&gt;AppModule -->
<g id="edge1" class="edge">
<title>AppComponent&#45;&gt;AppModule</title>
<path fill="none" stroke="black" d="M357,-198.11C357,-217.34 357,-245 357,-245 357,-245 267.92,-245 267.92,-245"/>
<polygon fill="black" stroke="black" points="267.92,-241.5 257.92,-245 267.92,-248.5 267.92,-241.5"/>
</g>
<!-- AppComponent  -->
<g id="node5" class="node">
<title>AppComponent </title>
<polygon fill="#80b1d3" stroke="black" points="270.44,-328 161.56,-328 161.56,-292 270.44,-292 270.44,-328"/>
<text text-anchor="middle" x="216" y="-305.8" font-family="Times,serif" font-size="14.00">AppComponent </text>
</g>
<!-- AppModule&#45;&gt;AppComponent  -->
<g id="edge4" class="edge">
<title>AppModule&#45;&gt;AppComponent </title>
<path fill="none" stroke="black" stroke-dasharray="1,5" d="M216,-263.11C216,-263.11 216,-281.99 216,-281.99"/>
<polygon fill="black" stroke="black" points="212.5,-281.99 216,-291.99 219.5,-281.99 212.5,-281.99"/>
</g>
<!-- AppRoutingModule -->
<g id="node3" class="node">
<title>AppRoutingModule</title>
<polygon fill="#8dd3c7" stroke="black" points="280.27,-198 277.27,-202 256.27,-202 253.27,-198 151.73,-198 151.73,-162 280.27,-162 280.27,-198"/>
<text text-anchor="middle" x="216" y="-175.8" font-family="Times,serif" font-size="14.00">AppRoutingModule</text>
</g>
<!-- AppRoutingModule&#45;&gt;AppModule -->
<g id="edge2" class="edge">
<title>AppRoutingModule&#45;&gt;AppModule</title>
<path fill="none" stroke="black" d="M216,-198.11C216,-198.11 216,-216.99 216,-216.99"/>
<polygon fill="black" stroke="black" points="212.5,-216.99 216,-226.99 219.5,-216.99 212.5,-216.99"/>
</g>
<!-- SharedModule -->
<g id="node4" class="node">
<title>SharedModule</title>
<polygon fill="#8dd3c7" stroke="black" points="133.42,-198 130.42,-202 109.42,-202 106.42,-198 34.58,-198 34.58,-162 133.42,-162 133.42,-198"/>
<text text-anchor="middle" x="84" y="-175.8" font-family="Times,serif" font-size="14.00">SharedModule</text>
</g>
<!-- SharedModule&#45;&gt;AppModule -->
<g id="edge3" class="edge">
<title>SharedModule&#45;&gt;AppModule</title>
<path fill="none" stroke="black" d="M84,-198.11C84,-217.34 84,-245 84,-245 84,-245 164.23,-245 164.23,-245"/>
<polygon fill="black" stroke="black" points="164.23,-248.5 174.23,-245 164.23,-241.5 164.23,-248.5"/>
</g>
<!-- LoginComponent -->
<g id="node6" class="node">
<title>LoginComponent</title>
<polygon fill="#ffffb3" stroke="black" points="1019.28,-122 904.72,-122 904.72,-86 1019.28,-86 1019.28,-122"/>
<text text-anchor="middle" x="962" y="-99.8" font-family="Times,serif" font-size="14.00">LoginComponent</text>
</g>
<!-- AuthModule -->
<g id="node9" class="node">
<title>AuthModule</title>
<polygon fill="#8dd3c7" stroke="black" points="787.55,-198 784.55,-202 763.55,-202 760.55,-198 700.45,-198 700.45,-162 787.55,-162 787.55,-198"/>
<text text-anchor="middle" x="744" y="-175.8" font-family="Times,serif" font-size="14.00">AuthModule</text>
</g>
<!-- LoginComponent&#45;&gt;AuthModule -->
<g id="edge5" class="edge">
<title>LoginComponent&#45;&gt;AuthModule</title>
<path fill="none" stroke="black" d="M962,-122.01C962,-144.49 962,-180 962,-180 962,-180 797.59,-180 797.59,-180"/>
<polygon fill="black" stroke="black" points="797.59,-176.5 787.59,-180 797.59,-183.5 797.59,-176.5"/>
</g>
<!-- RecoveryComponent -->
<g id="node7" class="node">
<title>RecoveryComponent</title>
<polygon fill="#ffffb3" stroke="black" points="886.47,-122 751.53,-122 751.53,-86 886.47,-86 886.47,-122"/>
<text text-anchor="middle" x="819" y="-99.8" font-family="Times,serif" font-size="14.00">RecoveryComponent</text>
</g>
<!-- RecoveryComponent&#45;&gt;AuthModule -->
<g id="edge6" class="edge">
<title>RecoveryComponent&#45;&gt;AuthModule</title>
<path fill="none" stroke="black" d="M769.64,-122.01C769.64,-122.01 769.64,-151.85 769.64,-151.85"/>
<polygon fill="black" stroke="black" points="766.14,-151.85 769.64,-161.85 773.14,-151.85 766.14,-151.85"/>
</g>
<!-- RegisterComponent -->
<g id="node8" class="node">
<title>RegisterComponent</title>
<polygon fill="#ffffb3" stroke="black" points="733.98,-122 606.02,-122 606.02,-86 733.98,-86 733.98,-122"/>
<text text-anchor="middle" x="670" y="-99.8" font-family="Times,serif" font-size="14.00">RegisterComponent</text>
</g>
<!-- RegisterComponent&#45;&gt;AuthModule -->
<g id="edge7" class="edge">
<title>RegisterComponent&#45;&gt;AuthModule</title>
<path fill="none" stroke="black" d="M717.11,-122.01C717.11,-122.01 717.11,-151.85 717.11,-151.85"/>
<polygon fill="black" stroke="black" points="713.61,-151.85 717.11,-161.85 720.61,-151.85 713.61,-151.85"/>
</g>
<!-- AuthRoutingModule -->
<g id="node10" class="node">
<title>AuthRoutingModule</title>
<polygon fill="#8dd3c7" stroke="black" points="582.17,-122 579.17,-126 558.17,-126 555.17,-122 449.83,-122 449.83,-86 582.17,-86 582.17,-122"/>
<text text-anchor="middle" x="516" y="-99.8" font-family="Times,serif" font-size="14.00">AuthRoutingModule</text>
</g>
<!-- AuthRoutingModule&#45;&gt;AuthModule -->
<g id="edge8" class="edge">
<title>AuthRoutingModule&#45;&gt;AuthModule</title>
<path fill="none" stroke="black" d="M516,-122.01C516,-144.49 516,-180 516,-180 516,-180 690.31,-180 690.31,-180"/>
<polygon fill="black" stroke="black" points="690.31,-183.5 700.31,-180 690.31,-176.5 690.31,-183.5"/>
</g>
<!-- ButtonComponent -->
<g id="node11" class="node">
<title>ButtonComponent</title>
<polygon fill="#ffffb3" stroke="black" points="143.95,-122 24.05,-122 24.05,-86 143.95,-86 143.95,-122"/>
<text text-anchor="middle" x="84" y="-99.8" font-family="Times,serif" font-size="14.00">ButtonComponent</text>
</g>
<!-- ButtonComponent&#45;&gt;SharedModule -->
<g id="edge9" class="edge">
<title>ButtonComponent&#45;&gt;SharedModule</title>
<path fill="none" stroke="black" d="M84,-122.01C84,-122.01 84,-151.85 84,-151.85"/>
<polygon fill="black" stroke="black" points="80.5,-151.85 84,-161.85 87.5,-151.85 80.5,-151.85"/>
</g>
</g>
</svg>
